<svg width="338" height="126" viewBox="0 0 338 126" fill="none" xmlns="http://www.w3.org/2000/svg">
<path fill-rule="evenodd" clip-rule="evenodd" d="M178.417 103.935V70.4493L142.434 55.3705L161.32 35.529L136.568 11.7773L129.549 26.3153L129.818 12.3389L98.4507 23.1748L99.2584 41.3941L104.586 39.8966L110.124 104.184L132.241 100.669L132.203 79.2054L178.417 103.935Z" fill="#1D1E1D"/>
<path fill-rule="evenodd" clip-rule="evenodd" d="M104.354 27.8515L123.412 21.716L124.585 42.9511L138.625 21.6328L152.337 35.7549L133.163 57.6139L172.627 74.5229V93.9693L126.778 69.1569L126.855 95.1548L114.989 96.9018L109.931 31.8656L104.584 33.363L104.354 27.8515Z" fill="white"/>
<path fill-rule="evenodd" clip-rule="evenodd" d="M248.86 14.978H228.09L227.494 18.6593H205.646L195.434 86.1914L220.359 90.4342L221.724 80.7422L228.244 93.7411L232.205 85.4426L233.667 99.0655L261.919 104.452L248.86 14.978Z" fill="#1D1E1D"/>
<path fill-rule="evenodd" clip-rule="evenodd" d="M233.553 21.2207H244.131L254.843 96.4481L239.227 93.8691L235.073 64.1068L229.207 80.5166L220.399 60.0095H220.302L216.821 83.782L202.186 81.0158L210.898 24.694H225.707L229.399 46.5322L233.553 21.2207Z" fill="white"/>
<path fill-rule="evenodd" clip-rule="evenodd" d="M275.306 21.1353L306.558 28.5602L308.885 41.0392L311.404 29.7873L338.002 36.7548L312.462 119.969L292.865 113.292L292.711 104.952L273.902 102.103L280.249 41.0392L275.537 39.8953L275.306 21.1353Z" fill="#1D1E1D"/>
<path fill-rule="evenodd" clip-rule="evenodd" d="M280.865 28.9336L301.231 33.3636L308.097 68.5127L315.117 37.0033L330.618 40.7262L308.789 112.231L297.943 108.716L297 65.497L291.539 98.8366L279.711 96.8192L285.019 36.2754L280.557 34.9859L280.865 28.9336Z" fill="white"/>
<path fill-rule="evenodd" clip-rule="evenodd" d="M272.306 92.4927C265.555 95.2381 258.382 94.9261 252.612 91.5984C247.266 88.5411 243.535 83.2375 242.093 76.686C239.208 63.6247 247.189 48.7123 259.882 43.4504C266.709 40.6634 273.941 40.9962 279.749 44.3447C285.037 47.3812 288.73 52.56 290.134 58.9243C293.076 72.1728 285.095 87.2308 272.306 92.4927Z" fill="#1D1E1D"/>
<path fill-rule="evenodd" clip-rule="evenodd" d="M285.187 60.1329C282.88 49.6506 272.533 44.3886 261.917 48.7147C251.628 52.9783 244.877 65.0205 247.204 75.5029C249.589 86.318 259.84 91.5591 270.456 87.2331C280.822 82.9902 287.572 70.8648 285.187 60.1329Z" fill="white"/>
<path fill-rule="evenodd" clip-rule="evenodd" d="M277.477 61.9809C277.265 67.7629 272.611 72.1305 266.919 71.8809C261.322 71.6313 257.014 66.8893 257.226 61.1074C257.437 55.679 262.072 51.3114 267.765 51.561C273.381 51.8106 277.688 56.5526 277.477 61.9809Z" fill="#1D1E1D"/>
<path fill-rule="evenodd" clip-rule="evenodd" d="M270.244 51.8107C266.84 51.6651 263.993 54.2025 263.859 57.4678C263.743 60.7331 266.397 63.5201 269.801 63.6657C273.205 63.8113 276.052 61.2739 276.186 58.0085C276.302 54.7432 273.648 51.9562 270.244 51.8107Z" fill="white"/>
<path fill-rule="evenodd" clip-rule="evenodd" d="M100.005 99.7753C93.1012 102.937 85.62 102.937 79.485 99.7545C73.8116 96.8011 69.7152 91.4768 67.9651 84.7173C64.4649 71.2608 72.1769 55.3917 85.1777 49.3394C92.1588 46.1573 99.6977 46.1573 105.871 49.381C111.487 52.2928 115.526 57.5132 117.237 64.0646C120.814 77.7083 113.083 93.7438 100.005 99.7753Z" fill="#1D1E1D"/>
<path fill-rule="evenodd" clip-rule="evenodd" d="M112.295 64.8957C109.448 53.9974 98.4093 48.9642 87.4471 53.9974C76.8119 58.9474 70.2154 71.8839 73.0617 82.7822C75.985 94.0341 86.9471 99.0465 97.9093 94.0341C108.621 89.0841 115.218 76.0436 112.295 64.8957Z" fill="white"/>
<path fill-rule="evenodd" clip-rule="evenodd" d="M104.873 66.9742C104.873 72.7561 100.392 77.3109 94.6996 77.3109C89.1031 77.3109 84.6221 72.7561 84.6221 66.9742C84.6221 61.5458 89.1031 56.9702 94.7957 56.9702C100.392 56.9702 104.873 61.525 104.873 66.9742Z" fill="#1D1E1D"/>
<path fill-rule="evenodd" clip-rule="evenodd" d="M97.275 57.1147C93.871 57.1147 91.1016 59.7769 91.1016 63.0423C91.1016 66.3076 93.8517 68.9698 97.275 68.9698C100.679 68.9698 103.448 66.3076 103.448 63.0423C103.448 59.7769 100.679 57.1147 97.275 57.1147Z" fill="white"/>
<path fill-rule="evenodd" clip-rule="evenodd" d="M61.9074 79.6842C76.7544 67.8916 83.8317 50.0674 78.466 36.6941C76.1197 30.8498 72.0041 26.0246 66.9653 22.9881C63.4267 20.4507 59.2149 18.8492 54.7916 18.3084C43.9448 16.2494 30.9248 18.3708 18.1164 24.2568C13.4046 26.4198 9.00051 28.9156 5.03875 31.6402L0 35.0719L3.0194 40.6042L12.4046 57.7628C12.4046 57.7628 15.2893 63.0456 15.3086 63.0248L20.405 60.3418L21.1166 59.9674L44.4448 116.31L46.695 121.718L51.926 119.908L64.5614 115.54L70.1001 113.627L68.6385 107.554L61.9074 79.6842Z" fill="#1D1E1D"/>
<path fill-rule="evenodd" clip-rule="evenodd" d="M72.8273 39.3329C70.9618 34.6949 67.7501 31.0552 63.5575 28.497C60.5189 26.3132 56.9995 25.2317 53.7108 24.8365C44.3641 23.0687 32.7289 24.7325 20.4782 30.3481C16.1125 32.3447 12.0354 34.6325 8.28516 37.2115L17.6703 54.3701C20.0743 53.1014 22.6706 51.7495 24.0745 50.9384L50.0183 113.562L62.6536 109.194L54.8647 76.7906C69.8079 66.8698 77.3468 50.5848 72.8273 39.3329Z" fill="white"/>
<path fill-rule="evenodd" clip-rule="evenodd" d="M205.552 55.8073L196.667 47.1552L201.033 42.1428L204.956 37.6296L201.34 32.8252C194.282 23.4243 182.993 19.6599 171.146 22.7588C154.665 27.0433 145.376 42.3924 149.049 59.2182C150.53 65.9984 154.453 71.8012 160.126 75.5657C166.896 80.0789 175.416 81.306 184.089 79.039C193.244 76.6472 199.975 72.6331 205.879 66.04L210.61 60.7573L205.552 55.8073Z" fill="#1D1E1D"/>
<path fill-rule="evenodd" clip-rule="evenodd" d="M191.892 51.7094C189.662 54.5588 187.104 57.1586 182.565 58.3441C181.046 58.7392 178.988 59.1136 177.68 58.864L196.777 36.8802C191.392 29.7048 182.546 26.3771 172.526 28.9977C160.064 32.2422 151.64 43.4733 154.756 57.7825C157.256 69.284 169.026 76.3346 182.68 72.7781C190.95 70.6151 196.7 67.1626 201.855 61.4014L191.892 51.7094Z" fill="white"/>
<path fill-rule="evenodd" clip-rule="evenodd" d="M162.067 19.1384L185.453 -10L198.396 10.9023L168.837 28.0817L162.067 19.1384Z" fill="#1D1E1D"/>
<path fill-rule="evenodd" clip-rule="evenodd" d="M184.451 -0.724609L191.298 9.34176L171.739 19.8241L170.374 17.5987L184.451 -0.724609Z" fill="white"/>
<path fill-rule="evenodd" clip-rule="evenodd" d="M169.956 52.0403C168.552 49.2742 168.821 45.7176 170.917 43.2426C172.936 40.8508 176.014 40.1645 178.648 41.2668L169.956 52.0403ZM170.917 43.2426C168.84 45.7176 168.552 49.2742 169.956 52.0403L178.648 41.2668C176.014 40.1645 172.917 40.8508 170.917 43.2426ZM183.476 39.6445C179.014 35.2561 172.129 35.6097 168.071 40.4349C164.013 45.2601 164.34 52.7059 168.802 57.0943C169.167 57.4687 169.571 57.7807 169.975 58.0718L184.264 40.4765C183.995 40.1853 183.745 39.9149 183.476 39.6445ZM169.956 52.0403C168.552 49.2742 168.821 45.7176 170.917 43.2426C172.936 40.8508 176.014 40.1645 178.648 41.2668L169.956 52.0403Z" fill="#1D1E1D"/>
<path fill-rule="evenodd" clip-rule="evenodd" d="M63.0048 50.0451C61.8894 43.4104 53.9082 39.6875 45.9077 44.3255L47.9078 51.9377L51.0619 63.1688L52.5042 68.2852C58.5046 64.1879 64.5434 59.2379 63.0048 50.0451ZM55.0621 60.1946C54.1966 57.1165 52.3312 50.4818 52.3312 50.4818C52.3504 50.5234 51.9465 49.0468 51.5234 47.4037C53.2158 47.0709 54.8313 47.2373 56.1775 47.9445C56.9276 48.3396 58.2161 49.2339 58.4854 50.9394C59.12 54.7455 57.9084 57.4701 55.0621 60.1946Z" fill="#1D1E1D"/>
<path fill-rule="evenodd" clip-rule="evenodd" d="M66.4316 125.772C66.4509 125.835 66.4701 125.876 66.4893 125.939C66.4893 125.96 66.5086 125.98 66.5086 126.001C66.4893 125.918 66.4509 125.856 66.4316 125.772Z" fill="#1D1E1D"/>
</svg>
